# xmcd
#
# Track frame offsets: 
#        150
#        4902
#        26803
#        47091
#        65354
#        87006
#        103507
#        119745
#        132879
#        161492
#        181518
#        217931
#        227494
#        245157
#        264958
#
# Disc length: 3614 seconds
#
# Revision: 2
# Processed by: cddbd v1.5.2PL0 Copyright (c) Steve Scherf et al.
# Submitted via: ExactAudioCopy v0.95b4
#
DISCID=c00e1c0f
DTITLE=Ferenczi György és a Herfli Davidson - Hamvadó cigarettavég
DYEAR=1999
DGENRE=Fusion
TTITLE0=Prológus
TTITLE1=Öreg leszek
TTITLE2=Hamvadó cigarettavég
TTITLE3=Minden nõ akit ismerek
TTITLE4=Ballada
TTITLE5=Hé-hé
TTITLE6=Nõ vagy
TTITLE7=Soul
TTITLE8=Villa Negra-egyveleg
TTITLE9=Engedj be
TTITLE10=Cold Sweat-egyveleg
TTITLE11=Rudy's feelgood
TTITLE12=Hard to handle
TTITLE13=Utolsó laza funky
TTITLE14=Epilógus
EXTD=YEAR: 1999
EXTT0=
EXTT1=
EXTT2=
EXTT3=
EXTT4=
EXTT5=
EXTT6=
EXTT7=
EXTT8=
EXTT9=
EXTT10=
EXTT11=
EXTT12=
EXTT13=
EXTT14=
PLAYORDER=
